# xmcd
#
# Track frame offsets:
#	182
#	13612
#	30680
#	46427
#	62775
#	74712
#	86305
#	97087
#	109340
#	123182
#	135150
#	152035
#	167317
#	176412
#
# Disc length: 2537 seconds
#
# Revision: 0
# Processed by: cddbd v1.5.1PL0 Copyright (c) Steve Scherf et al.
# Submitted via: audiograbber 1.83.01
#
DISCID=b109e70e
DTITLE=Katalog - Katalog '91
DYEAR=1991
DGENRE=Bluegrass
TTITLE0=Stop (Midnight Rider)
TTITLE1=Divadlo jednoho herce (Revival)
TTITLE2=Snù plný krám
TTITLE3=Zdá se mi
TTITLE4=Hypochondr
TTITLE5=Epilog
TTITLE6=Hallo Mary Lou
TTITLE7=Amorada
TTITLE8=Touha
TTITLE9=Zebrík
TTITLE10=Co nám zbýva (One Of These Trains)
TTITLE11=Rozdávám
TTITLE12=I've Just Seen A Face
TTITLE13=Svítá (I Cried Again)
EXTD=
EXTT0=
EXTT1=
EXTT2=
EXTT3=
EXTT4=
EXTT5=
EXTT6=
EXTT7=
EXTT8=
EXTT9=
EXTT10=
EXTT11=
EXTT12=
EXTT13=
PLAYORDER=
